<svg xmlns="http://www.w3.org/2000/svg" xmlns:xlink="http://www.w3.org/1999/xlink" viewBox="0 0 144.83 144.83"><defs><style>.cls-1{fill:#fff;}.cls-2{fill:url(#Degradado_sin_nombre_13);}.cls-3{fill:#1d1d1b;}.cls-4{fill:url(#Degradado_sin_nombre_13-2);}</style><linearGradient id="Degradado_sin_nombre_13" x1="2.99" y1="117.4" x2="141.84" y2="117.4" gradientUnits="userSpaceOnUse"><stop offset="0" stop-color="#f39200"/><stop offset="0.07" stop-color="#f7a600"/><stop offset="0.16" stop-color="#fab900"/><stop offset="0.26" stop-color="#fcc400"/><stop offset="0.36" stop-color="#fdc800"/><stop offset="0.77" stop-color="#f9b605"/><stop offset="1" stop-color="#f39200"/></linearGradient><linearGradient id="Degradado_sin_nombre_13-2" x1="89.82" y1="73.92" x2="102.15" y2="73.92" xlink:href="#Degradado_sin_nombre_13"/></defs><g id="Capa_2" data-name="Capa 2"><g id="Capa_1-2" data-name="Capa 1"><circle class="cls-1" cx="72.41" cy="72.41" r="72.41"/><path class="cls-2" d="M3,90H49.88l18.33,20.66L85.32,90.51h56.52s-2.11,19.4-20.74,35.51c-21.75,18.81-48.69,18.81-48.69,18.81s-28.26,0-46.68-17.06C3.32,107,3,90,3,90Z"/><path class="cls-3" d="M3,90.34c16-1,32-1.44,48-1.73l.54.59,9.14,10,9,10.1h-3q8.76-10.17,17.68-20.2l.58-.65h.82c18.69.25,37.37.69,56.05,1.85-18.68,1.17-37.36,1.61-56,1.86l1.4-.64q-8.67,10.25-17.49,20.36l-1.5,1.7-1.47-1.68c-4.48-5.06-13.42-15.32-17.81-20.46l1.29.58c-15.75-.29-31.5-.73-47.22-1.72Z"/><path class="cls-3" d="M46.79,45.64h-7V39.52H60.56v6.12h-7V82.38H46.79Z"/><path class="cls-3" d="M57.69,39.52H67.85c3.47,0,6,.8,7.59,2.42s2.39,4.09,2.39,7.44v1.71a11.82,11.82,0,0,1-1.07,5.39,6.25,6.25,0,0,1-3.28,3v.12q5,1.73,5,8.94v3.68q0,4.95-2.61,7.56t-7.62,2.6H57.69ZM67.05,57a4.09,4.09,0,0,0,3-1,5,5,0,0,0,1-3.49V50.05a5.47,5.47,0,0,0-.83-3.37,3.13,3.13,0,0,0-2.6-1H64.42V57Zm1.23,19.29a3.38,3.38,0,0,0,2.63-1A4.91,4.91,0,0,0,71.77,72V68.3c0-2-.34-3.32-1-4.07a4.27,4.27,0,0,0-3.34-1.14h-3V76.26Z"/><path class="cls-3" d="M81.57,45.64h-7L57.69,39.52H95.34v6.12h-7V82.38H81.57Z"/><path class="cls-4" d="M94.24,67.29l7.91,6.63L89.82,80.54Q92,73.91,94.24,67.29Z"/><path class="cls-3" d="M94.24,67.29c2.94,2,6.55,4.47,9.35,6.71-5,3-10.18,5.83-15.43,8.4,1.62-4.81,4-10.45,6.08-15.11Zm0,0C93,72,92.1,76.35,90.71,80.83l-1.33-1.12q6.09-3.45,12.39-6.51l-.14,1.34c-2.55-2.33-4.79-4.76-7.39-7.25Z"/></g></g></svg>